<mxfile host="app.diagrams.net" modified="2024-06-18T13:13:50.358Z" agent="Mozilla/5.0 (Windows NT 10.0; Win64; x64) AppleWebKit/537.36 (KHTML, like Gecko) Chrome/125.0.0.0 Safari/537.36" version="24.5.5" etag="yGWzLjAl06ETbEbQYHjY" type="github">
  <diagram name="Страница — 1" id="RgQxyOS5zE0Sr9URxaPR">
    <mxGraphModel>
      <root>
        <mxCell id="0" />
        <mxCell id="1" parent="0" />
      </root>
    </mxGraphModel>
  </diagram>
</mxfile>
